# xmcd CD database file
#
# Track frame offsets:
#	170
#	27984
#	45528
#	77539
#	105816
#	137426
#	165136
#	179406
#	198236
#	215805
#
# Disc length: 3139 seconds
#
# Revision: 0
# Processed by: cddbd v1.5.2PL0 Copyright (c) Steve Scherf et al.
# Submitted via: CDex 1.51
#
DISCID=730c410a
DTITLE=Nicolas Montier - Interdit d'écouter
DYEAR=2004
DGENRE=Jazz
TTITLE0=Huuuuu
TTITLE1=Giant Steps
TTITLE2=Like someone in love
TTITLE3=Interdit d'écouter
TTITLE4=Body and soul
TTITLE5=Just friends
TTITLE6=I'm crazy bout my baby
TTITLE7=What's new?
TTITLE8=Pas de discussion
TTITLE9=In your own sweet way
EXTD=YEAR: 2004
EXTT0=
EXTT1=
EXTT2=
EXTT3=
EXTT4=
EXTT5=
EXTT6=
EXTT7=
EXTT8=
EXTT9=
PLAYORDER=
